<?xml version="1.0" encoding="UTF-8" standalone="no"?>
<svg
   xmlns:dc="http://purl.org/dc/elements/1.1/"
   xmlns:cc="http://creativecommons.org/ns#"
   xmlns:rdf="http://www.w3.org/1999/02/22-rdf-syntax-ns#"
   xmlns:svg="http://www.w3.org/2000/svg"
   xmlns="http://www.w3.org/2000/svg"
   xmlns:sodipodi="http://sodipodi.sourceforge.net/DTD/sodipodi-0.dtd"
   xmlns:inkscape="http://www.inkscape.org/namespaces/inkscape"
   version="1.1"
   id="Capa_1"
   x="0px"
   y="0px"
   viewBox="0 0 319.97909 319.97909"
   xml:space="preserve"
   sodipodi:docname="spicastar.svg"
   width="319.9791"
   height="319.9791"
   inkscape:version="1.0.1 (3bc2e813f5, 2020-09-07)"><metadata
   id="metadata55"><rdf:RDF><cc:Work
       rdf:about=""><dc:format>image/svg+xml</dc:format><dc:type
         rdf:resource="http://purl.org/dc/dcmitype/StillImage" /><dc:title></dc:title></cc:Work></rdf:RDF></metadata><defs
   id="defs53">
	

		
	</defs><sodipodi:namedview
   pagecolor="#ffffff"
   bordercolor="#666666"
   borderopacity="1"
   objecttolerance="10"
   gridtolerance="10"
   guidetolerance="10"
   inkscape:pageopacity="0"
   inkscape:pageshadow="2"
   inkscape:window-width="1920"
   inkscape:window-height="1027"
   id="namedview51"
   showgrid="false"
   inkscape:zoom="1.8112279"
   inkscape:cx="238.83832"
   inkscape:cy="198.60029"
   inkscape:window-x="1912"
   inkscape:window-y="-8"
   inkscape:window-maximized="1"
   inkscape:current-layer="Capa_1" />
<path
   d="m 266.77011,167.9042 53.20899,-7.92068 -53.22283,-7.91134 C 187.13921,140.22897 179.73689,132.84216 167.90419,53.208987 L 159.98352,0 152.08311,53.219907 C 140.23589,132.8439 132.84616,140.23529 53.208989,152.07491 L 0,159.99559 l 53.222839,7.91133 c 79.625051,11.82937 87.016451,19.2191 98.852071,98.8632 l 7.92068,53.20899 7.90041,-53.21991 c 11.84721,-79.62399 19.23695,-87.01538 98.87411,-98.855 z"
   id="path2"
   style="fill:#000000;fill-opacity:1"
   sodipodi:nodetypes="ccccccccccccc" />


<g
   id="g20"
   transform="translate(-70.701291,-70.697293)">
</g>
<g
   id="g22"
   transform="translate(-70.701291,-70.697293)">
</g>
<g
   id="g24"
   transform="translate(-70.701291,-70.697293)">
</g>
<g
   id="g26"
   transform="translate(-70.701291,-70.697293)">
</g>
<g
   id="g28"
   transform="translate(-70.701291,-70.697293)">
</g>
<g
   id="g30"
   transform="translate(-70.701291,-70.697293)">
</g>
<g
   id="g32"
   transform="translate(-70.701291,-70.697293)">
</g>
<g
   id="g34"
   transform="translate(-70.701291,-70.697293)">
</g>
<g
   id="g36"
   transform="translate(-70.701291,-70.697293)">
</g>
<g
   id="g38"
   transform="translate(-70.701291,-70.697293)">
</g>
<g
   id="g40"
   transform="translate(-70.701291,-70.697293)">
</g>
<g
   id="g42"
   transform="translate(-70.701291,-70.697293)">
</g>
<g
   id="g44"
   transform="translate(-70.701291,-70.697293)">
</g>
<g
   id="g46"
   transform="translate(-70.701291,-70.697293)">
</g>
<g
   id="g48"
   transform="translate(-70.701291,-70.697293)">
</g>
</svg>
